<svg xmlns="http://www.w3.org/2000/svg" width="359" height="359" viewBox="0 0 359 359"><g><g opacity=".5"><g opacity=".5"><g opacity=".5"><path fill="#f0f0f0" d="M3.5 7a3.5 3.5 0 1 0 0-7 3.5 3.5 0 0 0 0 7z"/></g><g opacity=".5"><path fill="#f0f0f0" d="M195.5 7a3.5 3.5 0 1 0 0-7 3.5 3.5 0 0 0 0 7z"/></g><g opacity=".5"><path fill="#f0f0f0" d="M35.5 7a3.5 3.5 0 1 0 0-7 3.5 3.5 0 0 0 0 7z"/></g><g opacity=".5"><path fill="#f0f0f0" d="M227.5 7a3.5 3.5 0 1 0 0-7 3.5 3.5 0 0 0 0 7z"/></g><g opacity=".5"><path fill="#f0f0f0" d="M67.5 7a3.5 3.5 0 1 0 0-7 3.5 3.5 0 0 0 0 7z"/></g><g opacity=".5"><path fill="#f0f0f0" d="M259.5 7a3.5 3.5 0 1 0 0-7 3.5 3.5 0 0 0 0 7z"/></g><g opacity=".5"><path fill="#f0f0f0" d="M99.5 7a3.5 3.5 0 1 0 0-7 3.5 3.5 0 0 0 0 7z"/></g><g opacity=".5"><path fill="#f0f0f0" d="M291.5 7a3.5 3.5 0 1 0 0-7 3.5 3.5 0 0 0 0 7z"/></g><g opacity=".5"><path fill="#f0f0f0" d="M131.5 7a3.5 3.5 0 1 0 0-7 3.5 3.5 0 0 0 0 7z"/></g><g opacity=".5"><path fill="#f0f0f0" d="M323.5 7a3.5 3.5 0 1 0 0-7 3.5 3.5 0 0 0 0 7z"/></g><g opacity=".5"><path fill="#f0f0f0" d="M163.5 7a3.5 3.5 0 1 0 0-7 3.5 3.5 0 0 0 0 7z"/></g><g opacity=".5"><path fill="#f0f0f0" d="M355.5 7a3.5 3.5 0 1 0 0-7 3.5 3.5 0 0 0 0 7z"/></g></g><g opacity=".5"><g opacity=".5"><path fill="#f0f0f0" d="M3.5 39a3.5 3.5 0 1 0 0-7 3.5 3.5 0 0 0 0 7z"/></g><g opacity=".5"><path fill="#f0f0f0" d="M195.5 39a3.5 3.5 0 1 0 0-7 3.5 3.5 0 0 0 0 7z"/></g><g opacity=".5"><path fill="#f0f0f0" d="M35.5 39a3.5 3.5 0 1 0 0-7 3.5 3.5 0 0 0 0 7z"/></g><g opacity=".5"><path fill="#f0f0f0" d="M227.5 39a3.5 3.5 0 1 0 0-7 3.5 3.5 0 0 0 0 7z"/></g><g opacity=".5"><path fill="#f0f0f0" d="M67.5 39a3.5 3.5 0 1 0 0-7 3.5 3.5 0 0 0 0 7z"/></g><g opacity=".5"><path fill="#f0f0f0" d="M259.5 39a3.5 3.5 0 1 0 0-7 3.5 3.5 0 0 0 0 7z"/></g><g opacity=".5"><path fill="#f0f0f0" d="M99.5 39a3.5 3.5 0 1 0 0-7 3.5 3.5 0 0 0 0 7z"/></g><g opacity=".5"><path fill="#f0f0f0" d="M291.5 39a3.5 3.5 0 1 0 0-7 3.5 3.5 0 0 0 0 7z"/></g><g opacity=".5"><path fill="#f0f0f0" d="M131.5 39a3.5 3.5 0 1 0 0-7 3.5 3.5 0 0 0 0 7z"/></g><g opacity=".5"><path fill="#f0f0f0" d="M323.5 39a3.5 3.5 0 1 0 0-7 3.5 3.5 0 0 0 0 7z"/></g><g opacity=".5"><path fill="#f0f0f0" d="M163.5 39a3.5 3.5 0 1 0 0-7 3.5 3.5 0 0 0 0 7z"/></g><g opacity=".5"><path fill="#f0f0f0" d="M355.5 39a3.5 3.5 0 1 0 0-7 3.5 3.5 0 0 0 0 7z"/></g></g><g opacity=".5"><g opacity=".5"><path fill="#f0f0f0" d="M3.5 71a3.5 3.5 0 1 0 0-7 3.5 3.5 0 0 0 0 7z"/></g><g opacity=".5"><path fill="#f0f0f0" d="M195.5 71a3.5 3.5 0 1 0 0-7 3.5 3.5 0 0 0 0 7z"/></g><g opacity=".5"><path fill="#f0f0f0" d="M35.5 71a3.5 3.5 0 1 0 0-7 3.5 3.5 0 0 0 0 7z"/></g><g opacity=".5"><path fill="#f0f0f0" d="M227.5 71a3.5 3.5 0 1 0 0-7 3.5 3.5 0 0 0 0 7z"/></g><g opacity=".5"><path fill="#f0f0f0" d="M67.5 71a3.5 3.5 0 1 0 0-7 3.5 3.5 0 0 0 0 7z"/></g><g opacity=".5"><path fill="#f0f0f0" d="M259.5 71a3.5 3.5 0 1 0 0-7 3.5 3.5 0 0 0 0 7z"/></g><g opacity=".5"><path fill="#f0f0f0" d="M99.5 71a3.5 3.5 0 1 0 0-7 3.5 3.5 0 0 0 0 7z"/></g><g opacity=".5"><path fill="#f0f0f0" d="M291.5 71a3.5 3.5 0 1 0 0-7 3.5 3.5 0 0 0 0 7z"/></g><g opacity=".5"><path fill="#f0f0f0" d="M131.5 71a3.5 3.5 0 1 0 0-7 3.5 3.5 0 0 0 0 7z"/></g><g opacity=".5"><path fill="#f0f0f0" d="M323.5 71a3.5 3.5 0 1 0 0-7 3.5 3.5 0 0 0 0 7z"/></g><g opacity=".5"><path fill="#f0f0f0" d="M163.5 71a3.5 3.5 0 1 0 0-7 3.5 3.5 0 0 0 0 7z"/></g><g opacity=".5"><path fill="#f0f0f0" d="M355.5 71a3.5 3.5 0 1 0 0-7 3.5 3.5 0 0 0 0 7z"/></g></g><g opacity=".5"><g opacity=".5"><path fill="#f0f0f0" d="M3.5 103a3.5 3.5 0 1 0 0-7 3.5 3.5 0 0 0 0 7z"/></g><g opacity=".5"><path fill="#f0f0f0" d="M195.5 103a3.5 3.5 0 1 0 0-7 3.5 3.5 0 0 0 0 7z"/></g><g opacity=".5"><path fill="#f0f0f0" d="M35.5 103a3.5 3.5 0 1 0 0-7 3.5 3.5 0 0 0 0 7z"/></g><g opacity=".5"><path fill="#f0f0f0" d="M227.5 103a3.5 3.5 0 1 0 0-7 3.5 3.5 0 0 0 0 7z"/></g><g opacity=".5"><path fill="#f0f0f0" d="M67.5 103a3.5 3.5 0 1 0 0-7 3.5 3.5 0 0 0 0 7z"/></g><g opacity=".5"><path fill="#f0f0f0" d="M259.5 103a3.5 3.5 0 1 0 0-7 3.5 3.5 0 0 0 0 7z"/></g><g opacity=".5"><path fill="#f0f0f0" d="M99.5 103a3.5 3.5 0 1 0 0-7 3.5 3.5 0 0 0 0 7z"/></g><g opacity=".5"><path fill="#f0f0f0" d="M291.5 103a3.5 3.5 0 1 0 0-7 3.5 3.5 0 0 0 0 7z"/></g><g opacity=".5"><path fill="#f0f0f0" d="M131.5 103a3.5 3.5 0 1 0 0-7 3.5 3.5 0 0 0 0 7z"/></g><g opacity=".5"><path fill="#f0f0f0" d="M323.5 103a3.5 3.5 0 1 0 0-7 3.5 3.5 0 0 0 0 7z"/></g><g opacity=".5"><path fill="#f0f0f0" d="M163.5 103a3.5 3.5 0 1 0 0-7 3.5 3.5 0 0 0 0 7z"/></g><g opacity=".5"><path fill="#f0f0f0" d="M355.5 103a3.5 3.5 0 1 0 0-7 3.5 3.5 0 0 0 0 7z"/></g></g><g opacity=".5"><g opacity=".5"><path fill="#f0f0f0" d="M3.5 135a3.5 3.5 0 1 0 0-7 3.5 3.5 0 0 0 0 7z"/></g><g opacity=".5"><path fill="#f0f0f0" d="M195.5 135a3.5 3.5 0 1 0 0-7 3.5 3.5 0 0 0 0 7z"/></g><g opacity=".5"><path fill="#f0f0f0" d="M35.5 135a3.5 3.5 0 1 0 0-7 3.5 3.5 0 0 0 0 7z"/></g><g opacity=".5"><path fill="#f0f0f0" d="M227.5 135a3.5 3.5 0 1 0 0-7 3.5 3.5 0 0 0 0 7z"/></g><g opacity=".5"><path fill="#f0f0f0" d="M67.5 135a3.5 3.5 0 1 0 0-7 3.5 3.5 0 0 0 0 7z"/></g><g opacity=".5"><path fill="#f0f0f0" d="M259.5 135a3.5 3.5 0 1 0 0-7 3.5 3.5 0 0 0 0 7z"/></g><g opacity=".5"><path fill="#f0f0f0" d="M99.5 135a3.5 3.5 0 1 0 0-7 3.5 3.5 0 0 0 0 7z"/></g><g opacity=".5"><path fill="#f0f0f0" d="M291.5 135a3.5 3.5 0 1 0 0-7 3.5 3.5 0 0 0 0 7z"/></g><g opacity=".5"><path fill="#f0f0f0" d="M131.5 135a3.5 3.5 0 1 0 0-7 3.5 3.5 0 0 0 0 7z"/></g><g opacity=".5"><path fill="#f0f0f0" d="M323.5 135a3.5 3.5 0 1 0 0-7 3.5 3.5 0 0 0 0 7z"/></g><g opacity=".5"><path fill="#f0f0f0" d="M163.5 135a3.5 3.5 0 1 0 0-7 3.5 3.5 0 0 0 0 7z"/></g><g opacity=".5"><path fill="#f0f0f0" d="M355.5 135a3.5 3.5 0 1 0 0-7 3.5 3.5 0 0 0 0 7z"/></g></g><g opacity=".5"><g opacity=".5"><path fill="#f0f0f0" d="M3.5 167a3.5 3.5 0 1 0 0-7 3.5 3.5 0 0 0 0 7z"/></g><g opacity=".5"><path fill="#f0f0f0" d="M195.5 167a3.5 3.5 0 1 0 0-7 3.5 3.5 0 0 0 0 7z"/></g><g opacity=".5"><path fill="#f0f0f0" d="M35.5 167a3.5 3.5 0 1 0 0-7 3.5 3.5 0 0 0 0 7z"/></g><g opacity=".5"><path fill="#f0f0f0" d="M227.5 167a3.5 3.5 0 1 0 0-7 3.5 3.5 0 0 0 0 7z"/></g><g opacity=".5"><path fill="#f0f0f0" d="M67.5 167a3.5 3.5 0 1 0 0-7 3.5 3.5 0 0 0 0 7z"/></g><g opacity=".5"><path fill="#f0f0f0" d="M259.5 167a3.5 3.5 0 1 0 0-7 3.5 3.5 0 0 0 0 7z"/></g><g opacity=".5"><path fill="#f0f0f0" d="M99.5 167a3.5 3.5 0 1 0 0-7 3.5 3.5 0 0 0 0 7z"/></g><g opacity=".5"><path fill="#f0f0f0" d="M291.5 167a3.5 3.5 0 1 0 0-7 3.5 3.5 0 0 0 0 7z"/></g><g opacity=".5"><path fill="#f0f0f0" d="M131.5 167a3.5 3.5 0 1 0 0-7 3.5 3.5 0 0 0 0 7z"/></g><g opacity=".5"><path fill="#f0f0f0" d="M323.5 167a3.5 3.5 0 1 0 0-7 3.5 3.5 0 0 0 0 7z"/></g><g opacity=".5"><path fill="#f0f0f0" d="M163.5 167a3.5 3.5 0 1 0 0-7 3.5 3.5 0 0 0 0 7z"/></g><g opacity=".5"><path fill="#f0f0f0" d="M355.5 167a3.5 3.5 0 1 0 0-7 3.5 3.5 0 0 0 0 7z"/></g></g><g opacity=".5"><g opacity=".5"><path fill="#f0f0f0" d="M3.5 199a3.5 3.5 0 1 0 0-7 3.5 3.5 0 0 0 0 7z"/></g><g opacity=".5"><path fill="#f0f0f0" d="M195.5 199a3.5 3.5 0 1 0 0-7 3.5 3.5 0 0 0 0 7z"/></g><g opacity=".5"><path fill="#f0f0f0" d="M35.5 199a3.5 3.5 0 1 0 0-7 3.5 3.5 0 0 0 0 7z"/></g><g opacity=".5"><path fill="#f0f0f0" d="M227.5 199a3.5 3.5 0 1 0 0-7 3.5 3.5 0 0 0 0 7z"/></g><g opacity=".5"><path fill="#f0f0f0" d="M67.5 199a3.5 3.5 0 1 0 0-7 3.5 3.5 0 0 0 0 7z"/></g><g opacity=".5"><path fill="#f0f0f0" d="M259.5 199a3.5 3.5 0 1 0 0-7 3.5 3.5 0 0 0 0 7z"/></g><g opacity=".5"><path fill="#f0f0f0" d="M99.5 199a3.5 3.5 0 1 0 0-7 3.5 3.5 0 0 0 0 7z"/></g><g opacity=".5"><path fill="#f0f0f0" d="M291.5 199a3.5 3.5 0 1 0 0-7 3.5 3.5 0 0 0 0 7z"/></g><g opacity=".5"><path fill="#f0f0f0" d="M131.5 199a3.5 3.5 0 1 0 0-7 3.5 3.5 0 0 0 0 7z"/></g><g opacity=".5"><path fill="#f0f0f0" d="M323.5 199a3.5 3.5 0 1 0 0-7 3.5 3.5 0 0 0 0 7z"/></g><g opacity=".5"><path fill="#f0f0f0" d="M163.5 199a3.5 3.5 0 1 0 0-7 3.5 3.5 0 0 0 0 7z"/></g><g opacity=".5"><path fill="#f0f0f0" d="M355.5 199a3.5 3.5 0 1 0 0-7 3.5 3.5 0 0 0 0 7z"/></g></g><g opacity=".5"><g opacity=".5"><path fill="#f0f0f0" d="M3.5 231a3.5 3.5 0 1 0 0-7 3.5 3.5 0 0 0 0 7z"/></g><g opacity=".5"><path fill="#f0f0f0" d="M195.5 231a3.5 3.5 0 1 0 0-7 3.5 3.5 0 0 0 0 7z"/></g><g opacity=".5"><path fill="#f0f0f0" d="M35.5 231a3.5 3.5 0 1 0 0-7 3.5 3.5 0 0 0 0 7z"/></g><g opacity=".5"><path fill="#f0f0f0" d="M227.5 231a3.5 3.5 0 1 0 0-7 3.5 3.5 0 0 0 0 7z"/></g><g opacity=".5"><path fill="#f0f0f0" d="M67.5 231a3.5 3.5 0 1 0 0-7 3.5 3.5 0 0 0 0 7z"/></g><g opacity=".5"><path fill="#f0f0f0" d="M259.5 231a3.5 3.5 0 1 0 0-7 3.5 3.5 0 0 0 0 7z"/></g><g opacity=".5"><path fill="#f0f0f0" d="M99.5 231a3.5 3.5 0 1 0 0-7 3.5 3.5 0 0 0 0 7z"/></g><g opacity=".5"><path fill="#f0f0f0" d="M291.5 231a3.5 3.5 0 1 0 0-7 3.5 3.5 0 0 0 0 7z"/></g><g opacity=".5"><path fill="#f0f0f0" d="M131.5 231a3.5 3.5 0 1 0 0-7 3.5 3.5 0 0 0 0 7z"/></g><g opacity=".5"><path fill="#f0f0f0" d="M323.5 231a3.5 3.5 0 1 0 0-7 3.5 3.5 0 0 0 0 7z"/></g><g opacity=".5"><path fill="#f0f0f0" d="M163.5 231a3.5 3.5 0 1 0 0-7 3.5 3.5 0 0 0 0 7z"/></g><g opacity=".5"><path fill="#f0f0f0" d="M355.5 231a3.5 3.5 0 1 0 0-7 3.5 3.5 0 0 0 0 7z"/></g></g><g opacity=".5"><g opacity=".5"><path fill="#f0f0f0" d="M3.5 263a3.5 3.5 0 1 0 0-7 3.5 3.5 0 0 0 0 7z"/></g><g opacity=".5"><path fill="#f0f0f0" d="M195.5 263a3.5 3.5 0 1 0 0-7 3.5 3.5 0 0 0 0 7z"/></g><g opacity=".5"><path fill="#f0f0f0" d="M35.5 263a3.5 3.5 0 1 0 0-7 3.5 3.5 0 0 0 0 7z"/></g><g opacity=".5"><path fill="#f0f0f0" d="M227.5 263a3.5 3.5 0 1 0 0-7 3.5 3.5 0 0 0 0 7z"/></g><g opacity=".5"><path fill="#f0f0f0" d="M67.5 263a3.5 3.5 0 1 0 0-7 3.5 3.5 0 0 0 0 7z"/></g><g opacity=".5"><path fill="#f0f0f0" d="M259.5 263a3.5 3.5 0 1 0 0-7 3.5 3.5 0 0 0 0 7z"/></g><g opacity=".5"><path fill="#f0f0f0" d="M99.5 263a3.5 3.5 0 1 0 0-7 3.5 3.5 0 0 0 0 7z"/></g><g opacity=".5"><path fill="#f0f0f0" d="M291.5 263a3.5 3.5 0 1 0 0-7 3.5 3.5 0 0 0 0 7z"/></g><g opacity=".5"><path fill="#f0f0f0" d="M131.5 263a3.5 3.5 0 1 0 0-7 3.5 3.5 0 0 0 0 7z"/></g><g opacity=".5"><path fill="#f0f0f0" d="M323.5 263a3.5 3.5 0 1 0 0-7 3.5 3.5 0 0 0 0 7z"/></g><g opacity=".5"><path fill="#f0f0f0" d="M163.5 263a3.5 3.5 0 1 0 0-7 3.5 3.5 0 0 0 0 7z"/></g><g opacity=".5"><path fill="#f0f0f0" d="M355.5 263a3.5 3.5 0 1 0 0-7 3.5 3.5 0 0 0 0 7z"/></g></g><g opacity=".5"><g opacity=".5"><path fill="#f0f0f0" d="M3.5 295a3.5 3.5 0 1 0 0-7 3.5 3.5 0 0 0 0 7z"/></g><g opacity=".5"><path fill="#f0f0f0" d="M195.5 295a3.5 3.5 0 1 0 0-7 3.5 3.5 0 0 0 0 7z"/></g><g opacity=".5"><path fill="#f0f0f0" d="M35.5 295a3.5 3.5 0 1 0 0-7 3.5 3.5 0 0 0 0 7z"/></g><g opacity=".5"><path fill="#f0f0f0" d="M227.5 295a3.5 3.5 0 1 0 0-7 3.5 3.5 0 0 0 0 7z"/></g><g opacity=".5"><path fill="#f0f0f0" d="M67.5 295a3.5 3.5 0 1 0 0-7 3.5 3.5 0 0 0 0 7z"/></g><g opacity=".5"><path fill="#f0f0f0" d="M259.5 295a3.5 3.5 0 1 0 0-7 3.5 3.5 0 0 0 0 7z"/></g><g opacity=".5"><path fill="#f0f0f0" d="M99.5 295a3.5 3.5 0 1 0 0-7 3.5 3.5 0 0 0 0 7z"/></g><g opacity=".5"><path fill="#f0f0f0" d="M291.5 295a3.5 3.5 0 1 0 0-7 3.5 3.5 0 0 0 0 7z"/></g><g opacity=".5"><path fill="#f0f0f0" d="M131.5 295a3.5 3.5 0 1 0 0-7 3.5 3.5 0 0 0 0 7z"/></g><g opacity=".5"><path fill="#f0f0f0" d="M323.5 295a3.5 3.5 0 1 0 0-7 3.5 3.5 0 0 0 0 7z"/></g><g opacity=".5"><path fill="#f0f0f0" d="M163.5 295a3.5 3.5 0 1 0 0-7 3.5 3.5 0 0 0 0 7z"/></g><g opacity=".5"><path fill="#f0f0f0" d="M355.5 295a3.5 3.5 0 1 0 0-7 3.5 3.5 0 0 0 0 7z"/></g></g><g opacity=".5"><g opacity=".5"><path fill="#f0f0f0" d="M3.5 327a3.5 3.5 0 1 0 0-7 3.5 3.5 0 0 0 0 7z"/></g><g opacity=".5"><path fill="#f0f0f0" d="M195.5 327a3.5 3.5 0 1 0 0-7 3.5 3.5 0 0 0 0 7z"/></g><g opacity=".5"><path fill="#f0f0f0" d="M35.5 327a3.5 3.5 0 1 0 0-7 3.5 3.5 0 0 0 0 7z"/></g><g opacity=".5"><path fill="#f0f0f0" d="M227.5 327a3.5 3.5 0 1 0 0-7 3.5 3.5 0 0 0 0 7z"/></g><g opacity=".5"><path fill="#f0f0f0" d="M67.5 327a3.5 3.5 0 1 0 0-7 3.5 3.5 0 0 0 0 7z"/></g><g opacity=".5"><path fill="#f0f0f0" d="M259.5 327a3.5 3.5 0 1 0 0-7 3.5 3.5 0 0 0 0 7z"/></g><g opacity=".5"><path fill="#f0f0f0" d="M99.5 327a3.5 3.5 0 1 0 0-7 3.5 3.5 0 0 0 0 7z"/></g><g opacity=".5"><path fill="#f0f0f0" d="M291.5 327a3.5 3.5 0 1 0 0-7 3.5 3.5 0 0 0 0 7z"/></g><g opacity=".5"><path fill="#f0f0f0" d="M131.5 327a3.5 3.5 0 1 0 0-7 3.5 3.5 0 0 0 0 7z"/></g><g opacity=".5"><path fill="#f0f0f0" d="M323.5 327a3.5 3.5 0 1 0 0-7 3.5 3.5 0 0 0 0 7z"/></g><g opacity=".5"><path fill="#f0f0f0" d="M163.5 327a3.5 3.5 0 1 0 0-7 3.5 3.5 0 0 0 0 7z"/></g><g opacity=".5"><path fill="#f0f0f0" d="M355.5 327a3.5 3.5 0 1 0 0-7 3.5 3.5 0 0 0 0 7z"/></g></g><g opacity=".5"><g opacity=".5"><path fill="#f0f0f0" d="M3.5 359a3.5 3.5 0 1 0 0-7 3.5 3.5 0 0 0 0 7z"/></g><g opacity=".5"><path fill="#f0f0f0" d="M195.5 359a3.5 3.5 0 1 0 0-7 3.5 3.5 0 0 0 0 7z"/></g><g opacity=".5"><path fill="#f0f0f0" d="M35.5 359a3.5 3.5 0 1 0 0-7 3.5 3.5 0 0 0 0 7z"/></g><g opacity=".5"><path fill="#f0f0f0" d="M227.5 359a3.5 3.5 0 1 0 0-7 3.5 3.5 0 0 0 0 7z"/></g><g opacity=".5"><path fill="#f0f0f0" d="M67.5 359a3.5 3.5 0 1 0 0-7 3.5 3.5 0 0 0 0 7z"/></g><g opacity=".5"><path fill="#f0f0f0" d="M259.5 359a3.5 3.5 0 1 0 0-7 3.5 3.5 0 0 0 0 7z"/></g><g opacity=".5"><path fill="#f0f0f0" d="M99.5 359a3.5 3.5 0 1 0 0-7 3.5 3.5 0 0 0 0 7z"/></g><g opacity=".5"><path fill="#f0f0f0" d="M291.5 359a3.5 3.5 0 1 0 0-7 3.5 3.5 0 0 0 0 7z"/></g><g opacity=".5"><path fill="#f0f0f0" d="M131.5 359a3.5 3.5 0 1 0 0-7 3.5 3.5 0 0 0 0 7z"/></g><g opacity=".5"><path fill="#f0f0f0" d="M323.5 359a3.5 3.5 0 1 0 0-7 3.5 3.5 0 0 0 0 7z"/></g><g opacity=".5"><path fill="#f0f0f0" d="M163.5 359a3.5 3.5 0 1 0 0-7 3.5 3.5 0 0 0 0 7z"/></g><g opacity=".5"><path fill="#f0f0f0" d="M355.5 359a3.5 3.5 0 1 0 0-7 3.5 3.5 0 0 0 0 7z"/></g></g></g></g></svg>