<svg xmlns="http://www.w3.org/2000/svg" width="15" height="15" viewBox="0 0 15 15"><g><g><path fill="none" stroke="#c8d0d8" stroke-miterlimit="50" d="M7.5 10A2.505 2.505 0 0 1 5 7.5C5 6.123 6.123 5 7.5 5S10 6.123 10 7.5 8.877 10 7.5 10zm6.144-3.493l-.342-.082a1.491 1.491 0 0 1-1.026-.89V5.52a1.515 1.515 0 0 1 .096-1.37l.177-.302a.457.457 0 0 0-.068-.561l-.766-.767a.456.456 0 0 0-.561-.069l-.301.178c-.41.247-.917.288-1.369.096h-.013a1.492 1.492 0 0 1-.89-1.027l-.082-.343A.469.469 0 0 0 8.047 1H6.953a.48.48 0 0 0-.452.356l-.082.343c-.11.465-.452.849-.89 1.027h-.013a1.51 1.51 0 0 1-1.369-.096l-.3-.178a.456.456 0 0 0-.562.069l-.766.767a.457.457 0 0 0-.068.561l.177.302c.247.41.288.917.096 1.37v.013c-.178.439-.56.781-1.026.89l-.342.083A.469.469 0 0 0 1 6.959V8.04c0 .206.15.397.356.452l.342.082c.465.11.848.452 1.026.89v.014c.192.453.15.946-.096 1.37l-.177.302a.457.457 0 0 0 .068.561l.766.767c.15.151.383.179.561.069l.301-.178c.41-.247.917-.288 1.369-.096h.013c.438.178.78.562.89 1.027l.082.343a.469.469 0 0 0 .452.356h1.094a.48.48 0 0 0 .452-.356l.082-.343c.11-.465.452-.849.89-1.027h.013a1.51 1.51 0 0 1 1.369.096l.3.178c.179.11.411.082.562-.069l.766-.767a.457.457 0 0 0 .068-.561l-.177-.302a1.512 1.512 0 0 1-.096-1.37v-.013c.178-.439.56-.781 1.026-.89l.342-.083A.469.469 0 0 0 14 8.041V6.945a.453.453 0 0 0-.356-.438z"/></g></g></svg>