<svg xmlns="http://www.w3.org/2000/svg" width="359" height="359"><path fill="#f0f0f0" d="M3.5 7a3.5 3.5 0 1 0 0-7 3.5 3.5 0 0 0 0 7zm192 0a3.5 3.5 0 1 0 0-7 3.5 3.5 0 0 0 0 7zm-160 0a3.5 3.5 0 1 0 0-7 3.5 3.5 0 0 0 0 7zm192 0a3.5 3.5 0 1 0 0-7 3.5 3.5 0 0 0 0 7zm-160 0a3.5 3.5 0 1 0 0-7 3.5 3.5 0 0 0 0 7zm192 0a3.5 3.5 0 1 0 0-7 3.5 3.5 0 0 0 0 7zm-160 0a3.5 3.5 0 1 0 0-7 3.5 3.5 0 0 0 0 7zm192 0a3.5 3.5 0 1 0 0-7 3.5 3.5 0 0 0 0 7zm-160 0a3.5 3.5 0 1 0 0-7 3.5 3.5 0 0 0 0 7zm192 0a3.5 3.5 0 1 0 0-7 3.5 3.5 0 0 0 0 7zm-160 0a3.5 3.5 0 1 0 0-7 3.5 3.5 0 0 0 0 7zm192 0a3.5 3.5 0 1 0 0-7 3.5 3.5 0 0 0 0 7zM3.5 39a3.5 3.5 0 1 0 0-7 3.5 3.5 0 0 0 0 7zm192 0a3.5 3.5 0 1 0 0-7 3.5 3.5 0 0 0 0 7zm-160 0a3.5 3.5 0 1 0 0-7 3.5 3.5 0 0 0 0 7zm192 0a3.5 3.5 0 1 0 0-7 3.5 3.5 0 0 0 0 7zm-160 0a3.5 3.5 0 1 0 0-7 3.5 3.5 0 0 0 0 7zm192 0a3.5 3.5 0 1 0 0-7 3.5 3.5 0 0 0 0 7zm-160 0a3.5 3.5 0 1 0 0-7 3.5 3.5 0 0 0 0 7zm192 0a3.5 3.5 0 1 0 0-7 3.5 3.5 0 0 0 0 7zm-160 0a3.5 3.5 0 1 0 0-7 3.5 3.5 0 0 0 0 7zm192 0a3.5 3.5 0 1 0 0-7 3.5 3.5 0 0 0 0 7zm-160 0a3.5 3.5 0 1 0 0-7 3.5 3.5 0 0 0 0 7zm192 0a3.5 3.5 0 1 0 0-7 3.5 3.5 0 0 0 0 7zM3.5 71a3.5 3.5 0 1 0 0-7 3.5 3.5 0 0 0 0 7zm192 0a3.5 3.5 0 1 0 0-7 3.5 3.5 0 0 0 0 7zm-160 0a3.5 3.5 0 1 0 0-7 3.5 3.5 0 0 0 0 7zm192 0a3.5 3.5 0 1 0 0-7 3.5 3.5 0 0 0 0 7zm-160 0a3.5 3.5 0 1 0 0-7 3.5 3.5 0 0 0 0 7zm192 0a3.5 3.5 0 1 0 0-7 3.5 3.5 0 0 0 0 7zm-160 0a3.5 3.5 0 1 0 0-7 3.5 3.5 0 0 0 0 7zm192 0a3.5 3.5 0 1 0 0-7 3.5 3.5 0 0 0 0 7zm-160 0a3.5 3.5 0 1 0 0-7 3.5 3.5 0 0 0 0 7zm192 0a3.5 3.5 0 1 0 0-7 3.5 3.5 0 0 0 0 7zm-160 0a3.5 3.5 0 1 0 0-7 3.5 3.5 0 0 0 0 7zm192 0a3.5 3.5 0 1 0 0-7 3.5 3.5 0 0 0 0 7zm-352 32a3.5 3.5 0 1 0 0-7 3.5 3.5 0 0 0 0 7zm192 0a3.5 3.5 0 1 0 0-7 3.5 3.5 0 0 0 0 7zm-160 0a3.5 3.5 0 1 0 0-7 3.5 3.5 0 0 0 0 7zm192 0a3.5 3.5 0 1 0 0-7 3.5 3.5 0 0 0 0 7zm-160 0a3.5 3.5 0 1 0 0-7 3.5 3.5 0 0 0 0 7zm192 0a3.5 3.5 0 1 0 0-7 3.5 3.5 0 0 0 0 7zm-160 0a3.5 3.5 0 1 0 0-7 3.5 3.5 0 0 0 0 7zm192 0a3.5 3.5 0 1 0 0-7 3.5 3.5 0 0 0 0 7zm-160 0a3.5 3.5 0 1 0 0-7 3.5 3.5 0 0 0 0 7zm192 0a3.5 3.5 0 1 0 0-7 3.5 3.5 0 0 0 0 7zm-160 0a3.5 3.5 0 1 0 0-7 3.5 3.5 0 0 0 0 7zm192 0a3.5 3.5 0 1 0 0-7 3.5 3.5 0 0 0 0 7zm-352 32a3.5 3.5 0 1 0 0-7 3.5 3.5 0 0 0 0 7zm192 0a3.5 3.5 0 1 0 0-7 3.5 3.5 0 0 0 0 7zm-160 0a3.5 3.5 0 1 0 0-7 3.5 3.5 0 0 0 0 7zm192 0a3.5 3.5 0 1 0 0-7 3.5 3.5 0 0 0 0 7zm-160 0a3.5 3.5 0 1 0 0-7 3.5 3.5 0 0 0 0 7zm192 0a3.5 3.5 0 1 0 0-7 3.5 3.5 0 0 0 0 7zm-160 0a3.5 3.5 0 1 0 0-7 3.5 3.5 0 0 0 0 7zm192 0a3.5 3.5 0 1 0 0-7 3.5 3.5 0 0 0 0 7zm-160 0a3.5 3.5 0 1 0 0-7 3.5 3.5 0 0 0 0 7zm192 0a3.5 3.5 0 1 0 0-7 3.5 3.5 0 0 0 0 7zm-160 0a3.5 3.5 0 1 0 0-7 3.5 3.5 0 0 0 0 7zm192 0a3.5 3.5 0 1 0 0-7 3.5 3.5 0 0 0 0 7zm-352 32a3.5 3.5 0 1 0 0-7 3.5 3.5 0 0 0 0 7zm192 0a3.5 3.5 0 1 0 0-7 3.5 3.5 0 0 0 0 7zm-160 0a3.5 3.5 0 1 0 0-7 3.5 3.5 0 0 0 0 7zm192 0a3.5 3.5 0 1 0 0-7 3.5 3.5 0 0 0 0 7zm-160 0a3.5 3.5 0 1 0 0-7 3.5 3.5 0 0 0 0 7zm192 0a3.5 3.5 0 1 0 0-7 3.5 3.5 0 0 0 0 7zm-160 0a3.5 3.5 0 1 0 0-7 3.5 3.5 0 0 0 0 7zm192 0a3.5 3.5 0 1 0 0-7 3.5 3.5 0 0 0 0 7zm-160 0a3.5 3.5 0 1 0 0-7 3.5 3.5 0 0 0 0 7zm192 0a3.5 3.5 0 1 0 0-7 3.5 3.5 0 0 0 0 7zm-160 0a3.5 3.5 0 1 0 0-7 3.5 3.5 0 0 0 0 7zm192 0a3.5 3.5 0 1 0 0-7 3.5 3.5 0 0 0 0 7zm-352 32a3.5 3.5 0 1 0 0-7 3.5 3.5 0 0 0 0 7zm192 0a3.5 3.5 0 1 0 0-7 3.5 3.5 0 0 0 0 7zm-160 0a3.5 3.5 0 1 0 0-7 3.5 3.5 0 0 0 0 7zm192 0a3.5 3.5 0 1 0 0-7 3.5 3.5 0 0 0 0 7zm-160 0a3.5 3.5 0 1 0 0-7 3.5 3.5 0 0 0 0 7zm192 0a3.5 3.5 0 1 0 0-7 3.5 3.5 0 0 0 0 7zm-160 0a3.5 3.5 0 1 0 0-7 3.5 3.5 0 0 0 0 7zm192 0a3.5 3.5 0 1 0 0-7 3.5 3.5 0 0 0 0 7zm-160 0a3.5 3.5 0 1 0 0-7 3.5 3.5 0 0 0 0 7zm192 0a3.5 3.5 0 1 0 0-7 3.5 3.5 0 0 0 0 7zm-160 0a3.5 3.5 0 1 0 0-7 3.5 3.5 0 0 0 0 7zm192 0a3.5 3.5 0 1 0 0-7 3.5 3.5 0 0 0 0 7zm-352 32a3.5 3.5 0 1 0 0-7 3.5 3.5 0 0 0 0 7zm192 0a3.5 3.5 0 1 0 0-7 3.5 3.5 0 0 0 0 7zm-160 0a3.5 3.5 0 1 0 0-7 3.5 3.5 0 0 0 0 7zm192 0a3.5 3.5 0 1 0 0-7 3.5 3.5 0 0 0 0 7zm-160 0a3.5 3.5 0 1 0 0-7 3.5 3.5 0 0 0 0 7zm192 0a3.5 3.5 0 1 0 0-7 3.5 3.5 0 0 0 0 7zm-160 0a3.5 3.5 0 1 0 0-7 3.5 3.5 0 0 0 0 7zm192 0a3.5 3.5 0 1 0 0-7 3.5 3.5 0 0 0 0 7zm-160 0a3.5 3.5 0 1 0 0-7 3.5 3.5 0 0 0 0 7zm192 0a3.5 3.5 0 1 0 0-7 3.5 3.5 0 0 0 0 7zm-160 0a3.5 3.5 0 1 0 0-7 3.5 3.5 0 0 0 0 7zm192 0a3.5 3.5 0 1 0 0-7 3.5 3.5 0 0 0 0 7zm-352 32a3.5 3.5 0 1 0 0-7 3.5 3.5 0 0 0 0 7zm192 0a3.5 3.5 0 1 0 0-7 3.5 3.5 0 0 0 0 7zm-160 0a3.5 3.5 0 1 0 0-7 3.5 3.5 0 0 0 0 7zm192 0a3.5 3.5 0 1 0 0-7 3.5 3.5 0 0 0 0 7zm-160 0a3.5 3.5 0 1 0 0-7 3.5 3.5 0 0 0 0 7zm192 0a3.5 3.5 0 1 0 0-7 3.5 3.5 0 0 0 0 7zm-160 0a3.5 3.5 0 1 0 0-7 3.5 3.5 0 0 0 0 7zm192 0a3.5 3.5 0 1 0 0-7 3.5 3.5 0 0 0 0 7zm-160 0a3.5 3.5 0 1 0 0-7 3.5 3.5 0 0 0 0 7zm192 0a3.5 3.5 0 1 0 0-7 3.5 3.5 0 0 0 0 7zm-160 0a3.5 3.5 0 1 0 0-7 3.5 3.5 0 0 0 0 7zm192 0a3.5 3.5 0 1 0 0-7 3.5 3.5 0 0 0 0 7zm-352 32a3.5 3.5 0 1 0 0-7 3.5 3.5 0 0 0 0 7zm192 0a3.5 3.5 0 1 0 0-7 3.5 3.5 0 0 0 0 7zm-160 0a3.5 3.5 0 1 0 0-7 3.5 3.5 0 0 0 0 7zm192 0a3.5 3.5 0 1 0 0-7 3.5 3.5 0 0 0 0 7zm-160 0a3.5 3.5 0 1 0 0-7 3.5 3.5 0 0 0 0 7zm192 0a3.5 3.5 0 1 0 0-7 3.5 3.5 0 0 0 0 7zm-160 0a3.5 3.5 0 1 0 0-7 3.5 3.5 0 0 0 0 7zm192 0a3.5 3.5 0 1 0 0-7 3.5 3.5 0 0 0 0 7zm-160 0a3.5 3.5 0 1 0 0-7 3.5 3.5 0 0 0 0 7zm192 0a3.5 3.5 0 1 0 0-7 3.5 3.5 0 0 0 0 7zm-160 0a3.5 3.5 0 1 0 0-7 3.5 3.5 0 0 0 0 7zm192 0a3.5 3.5 0 1 0 0-7 3.5 3.5 0 0 0 0 7zm-352 32a3.5 3.5 0 1 0 0-7 3.5 3.5 0 0 0 0 7zm192 0a3.5 3.5 0 1 0 0-7 3.5 3.5 0 0 0 0 7zm-160 0a3.5 3.5 0 1 0 0-7 3.5 3.5 0 0 0 0 7zm192 0a3.5 3.5 0 1 0 0-7 3.5 3.5 0 0 0 0 7zm-160 0a3.5 3.5 0 1 0 0-7 3.5 3.5 0 0 0 0 7zm192 0a3.5 3.5 0 1 0 0-7 3.5 3.5 0 0 0 0 7zm-160 0a3.5 3.5 0 1 0 0-7 3.5 3.5 0 0 0 0 7zm192 0a3.5 3.5 0 1 0 0-7 3.5 3.5 0 0 0 0 7zm-160 0a3.5 3.5 0 1 0 0-7 3.5 3.5 0 0 0 0 7zm192 0a3.5 3.5 0 1 0 0-7 3.5 3.5 0 0 0 0 7zm-160 0a3.5 3.5 0 1 0 0-7 3.5 3.5 0 0 0 0 7zm192 0a3.5 3.5 0 1 0 0-7 3.5 3.5 0 0 0 0 7zm-352 32a3.5 3.5 0 1 0 0-7 3.5 3.5 0 0 0 0 7zm192 0a3.5 3.5 0 1 0 0-7 3.5 3.5 0 0 0 0 7zm-160 0a3.5 3.5 0 1 0 0-7 3.5 3.5 0 0 0 0 7zm192 0a3.5 3.5 0 1 0 0-7 3.5 3.5 0 0 0 0 7zm-160 0a3.5 3.5 0 1 0 0-7 3.5 3.5 0 0 0 0 7zm192 0a3.5 3.5 0 1 0 0-7 3.5 3.5 0 0 0 0 7zm-160 0a3.5 3.5 0 1 0 0-7 3.5 3.5 0 0 0 0 7zm192 0a3.5 3.5 0 1 0 0-7 3.5 3.5 0 0 0 0 7zm-160 0a3.5 3.5 0 1 0 0-7 3.5 3.5 0 0 0 0 7zm192 0a3.5 3.5 0 1 0 0-7 3.5 3.5 0 0 0 0 7zm-160 0a3.5 3.5 0 1 0 0-7 3.5 3.5 0 0 0 0 7zm192 0a3.5 3.5 0 1 0 0-7 3.5 3.5 0 0 0 0 7z" opacity=".5"/></svg>