<svg xmlns="http://www.w3.org/2000/svg" width="14" height="13"><path fill="#c8d0d8" d="M.342 4.112a.343.343 0 0 1-.243-.096A.32.32 0 0 1 0 3.782V1.664C0 .745.77 0 1.722 0h10.556c.95 0 1.721.745 1.721 1.664v2.104a.32.32 0 0 1-.093.244.343.343 0 0 1-.248.1h-.57v7.237c-.007.914-.775 1.651-1.72 1.651H2.631c-.945 0-1.714-.737-1.721-1.65V4.111zm8.21 0a.343.343 0 0 1-.242-.096.32.32 0 0 1-.099-.234C8.211 3.135 7.67 2.61 7 2.61s-1.212.524-1.212 1.17a.32.32 0 0 1-.098.235.343.343 0 0 1-.243.096H1.594v7.237c0 .266.11.522.304.71.195.188.459.294.734.294h8.735c.574 0 1.039-.45 1.039-1.004V4.112zm.31-.66h4.454V1.663c0-.554-.465-1.004-1.038-1.004H1.722C1.148.66.683 1.11.683 1.664v1.761h4.454c.167-.868.95-1.497 1.863-1.497s1.696.63 1.862 1.497z"/></svg>