<svg width="87" height="26" xmlns="http://www.w3.org/2000/svg" xmlns:xlink="http://www.w3.org/1999/xlink"><defs><path id="a" d="M0 .302h16.022v10.753H0z"/><path id="c" d="M.045.015h16.022v21.104H.045z"/></defs><g fill="none" fill-rule="evenodd"><path fill="#54617A" d="M0 4h3V0H0zm13 0h3V0h-3z"/><g transform="translate(0 9.973)"><mask id="b" fill="#fff"><use xlink:href="#a"/></mask><path d="M13.225 3.035a5.223 5.223 0 0 1-5.214 5.22 5.223 5.223 0 0 1-5.214-5.22V.302H0v2.733c0 4.422 3.594 8.02 8.011 8.02s8.011-3.598 8.011-8.02V.302h-2.797v2.733z" fill="#54617A" mask="url(#b)"/></g><path d="M58.778 18.32a5.223 5.223 0 0 1-5.214-5.22c0-2.879 2.34-5.22 5.214-5.22a5.223 5.223 0 0 1 5.215 5.22c0 2.878-2.34 5.22-5.215 5.22m0-13.24c-4.417 0-8.011 3.597-8.011 8.02 0 4.421 3.594 8.019 8.011 8.019 4.418 0 8.012-3.598 8.012-8.02s-3.594-8.02-8.012-8.02M38.972 2.815h5.214v10.284a5.222 5.222 0 0 1-5.214 5.22v2.8c4.417 0 8.011-3.598 8.011-8.02V.015h-8.011v2.8zM28.647 18.32a5.223 5.223 0 0 1-5.214-5.22c0-2.879 2.34-5.22 5.214-5.22a5.223 5.223 0 0 1 5.215 5.22c0 2.878-2.34 5.22-5.215 5.22m0-13.24c-4.417 0-8.011 3.597-8.011 8.02V26h2.797v-6.82a7.968 7.968 0 0 0 5.214 1.939c4.418 0 8.012-3.598 8.012-8.02s-3.594-8.02-8.012-8.02" fill="#54617A"/><g transform="translate(70.087)"><mask id="d" fill="#fff"><use xlink:href="#c"/></mask><path d="M8.056 18.32a5.223 5.223 0 0 1-5.214-5.22c0-2.879 2.34-5.22 5.214-5.22a5.223 5.223 0 0 1 5.214 5.22 5.223 5.223 0 0 1-5.214 5.22m0-13.24c-1.99 0-3.812.731-5.214 1.938V.015H.045v13.084c0 4.422 3.594 8.02 8.011 8.02 4.418 0 8.012-3.598 8.012-8.02s-3.594-8.02-8.012-8.02" fill="#54617A" mask="url(#d)"/></g></g></svg>